<mxfile host="app.diagrams.net" modified="2023-03-01T06:09:28.101Z" agent="5.0 (Windows)" etag="34PjrmykofBrUYr2Zen_" version="20.8.23" type="github">
  <diagram id="C5RBs43oDa-KdzZeNtuy" name="Page-1">
    <mxGraphModel dx="1591" dy="860" grid="1" gridSize="10" guides="1" tooltips="1" connect="1" arrows="1" fold="1" page="1" pageScale="1" pageWidth="827" pageHeight="1169" math="0" shadow="0">
      <root>
        <mxCell id="WIyWlLk6GJQsqaUBKTNV-0" />
        <mxCell id="WIyWlLk6GJQsqaUBKTNV-1" parent="WIyWlLk6GJQsqaUBKTNV-0" />
        <mxCell id="JMEBh1NOCG6JyZOsz3gw-9" style="edgeStyle=orthogonalEdgeStyle;rounded=0;orthogonalLoop=1;jettySize=auto;html=1;exitX=0.5;exitY=1;exitDx=0;exitDy=0;entryX=0.5;entryY=0;entryDx=0;entryDy=0;" edge="1" parent="WIyWlLk6GJQsqaUBKTNV-1" source="JMEBh1NOCG6JyZOsz3gw-0" target="JMEBh1NOCG6JyZOsz3gw-1">
          <mxGeometry relative="1" as="geometry" />
        </mxCell>
        <mxCell id="JMEBh1NOCG6JyZOsz3gw-0" value="Start" style="rounded=1;whiteSpace=wrap;html=1;" vertex="1" parent="WIyWlLk6GJQsqaUBKTNV-1">
          <mxGeometry x="340" y="10" width="120" height="60" as="geometry" />
        </mxCell>
        <mxCell id="JMEBh1NOCG6JyZOsz3gw-10" style="edgeStyle=orthogonalEdgeStyle;rounded=0;orthogonalLoop=1;jettySize=auto;html=1;exitX=0.5;exitY=1;exitDx=0;exitDy=0;entryX=0.5;entryY=0;entryDx=0;entryDy=0;" edge="1" parent="WIyWlLk6GJQsqaUBKTNV-1" source="JMEBh1NOCG6JyZOsz3gw-1" target="JMEBh1NOCG6JyZOsz3gw-2">
          <mxGeometry relative="1" as="geometry" />
        </mxCell>
        <mxCell id="JMEBh1NOCG6JyZOsz3gw-1" value="Code จาก Old Website" style="shape=parallelogram;perimeter=parallelogramPerimeter;whiteSpace=wrap;html=1;fixedSize=1;" vertex="1" parent="WIyWlLk6GJQsqaUBKTNV-1">
          <mxGeometry x="340" y="130" width="120" height="60" as="geometry" />
        </mxCell>
        <mxCell id="JMEBh1NOCG6JyZOsz3gw-11" style="edgeStyle=orthogonalEdgeStyle;rounded=0;orthogonalLoop=1;jettySize=auto;html=1;exitX=0.5;exitY=1;exitDx=0;exitDy=0;entryX=0.5;entryY=0;entryDx=0;entryDy=0;" edge="1" parent="WIyWlLk6GJQsqaUBKTNV-1" source="JMEBh1NOCG6JyZOsz3gw-2" target="JMEBh1NOCG6JyZOsz3gw-3">
          <mxGeometry relative="1" as="geometry" />
        </mxCell>
        <mxCell id="JMEBh1NOCG6JyZOsz3gw-2" value="&lt;br&gt;&lt;div align=&quot;center&quot;&gt;&lt;b&gt;&lt;span class=&quot;HwtZe&quot; lang=&quot;en&quot;&gt;&lt;span class=&quot;jCAhz ChMk0b&quot;&gt;&lt;span class=&quot;ryNqvb&quot;&gt;Code modifications to support HTML 5 and CSS 3.&lt;/span&gt;&lt;/span&gt;&lt;/span&gt;&lt;br&gt;&lt;/b&gt;&lt;br&gt;&lt;/div&gt;" style="rounded=0;whiteSpace=wrap;html=1;align=center;" vertex="1" parent="WIyWlLk6GJQsqaUBKTNV-1">
          <mxGeometry x="320" y="240" width="160" height="60" as="geometry" />
        </mxCell>
        <mxCell id="JMEBh1NOCG6JyZOsz3gw-12" style="edgeStyle=orthogonalEdgeStyle;rounded=0;orthogonalLoop=1;jettySize=auto;html=1;exitX=0.5;exitY=1;exitDx=0;exitDy=0;entryX=0.5;entryY=0;entryDx=0;entryDy=0;" edge="1" parent="WIyWlLk6GJQsqaUBKTNV-1" source="JMEBh1NOCG6JyZOsz3gw-3" target="JMEBh1NOCG6JyZOsz3gw-4">
          <mxGeometry relative="1" as="geometry" />
        </mxCell>
        <mxCell id="JMEBh1NOCG6JyZOsz3gw-3" value="&lt;br&gt;&lt;div align=&quot;center&quot;&gt;&lt;span class=&quot;HwtZe&quot; lang=&quot;en&quot;&gt;&lt;span class=&quot;jCAhz ChMk0b C1N51c&quot;&gt;&lt;span class=&quot;ryNqvb&quot;&gt;Upload to new website&lt;/span&gt;&lt;/span&gt;&lt;/span&gt;&lt;br&gt;&lt;br&gt;&lt;/div&gt;" style="shape=parallelogram;perimeter=parallelogramPerimeter;whiteSpace=wrap;html=1;fixedSize=1;size=20;align=center;" vertex="1" parent="WIyWlLk6GJQsqaUBKTNV-1">
          <mxGeometry x="340" y="350" width="120" height="60" as="geometry" />
        </mxCell>
        <mxCell id="JMEBh1NOCG6JyZOsz3gw-13" style="edgeStyle=orthogonalEdgeStyle;rounded=0;orthogonalLoop=1;jettySize=auto;html=1;exitX=1;exitY=0.5;exitDx=0;exitDy=0;entryX=0;entryY=0.5;entryDx=0;entryDy=0;" edge="1" parent="WIyWlLk6GJQsqaUBKTNV-1" source="JMEBh1NOCG6JyZOsz3gw-4" target="JMEBh1NOCG6JyZOsz3gw-6">
          <mxGeometry relative="1" as="geometry" />
        </mxCell>
        <mxCell id="JMEBh1NOCG6JyZOsz3gw-14" style="edgeStyle=orthogonalEdgeStyle;rounded=0;orthogonalLoop=1;jettySize=auto;html=1;exitX=0.5;exitY=1;exitDx=0;exitDy=0;entryX=0.5;entryY=0;entryDx=0;entryDy=0;" edge="1" parent="WIyWlLk6GJQsqaUBKTNV-1" source="JMEBh1NOCG6JyZOsz3gw-4" target="JMEBh1NOCG6JyZOsz3gw-5">
          <mxGeometry relative="1" as="geometry" />
        </mxCell>
        <mxCell id="JMEBh1NOCG6JyZOsz3gw-4" value="&lt;span class=&quot;HwtZe&quot; lang=&quot;en&quot;&gt;&lt;span class=&quot;jCAhz ChMk0b C1N51c&quot;&gt;&lt;span class=&quot;ryNqvb&quot;&gt;The team &lt;br&gt;&lt;/span&gt;&lt;/span&gt;&lt;/span&gt;&lt;div align=&quot;center&quot;&gt;&lt;span class=&quot;HwtZe&quot; lang=&quot;en&quot;&gt;&lt;span class=&quot;jCAhz ChMk0b C1N51c&quot;&gt;&lt;span class=&quot;ryNqvb&quot;&gt;checks the accuracy&lt;/span&gt;&lt;/span&gt;&lt;/span&gt;&lt;/div&gt;&lt;p&gt;&lt;/p&gt;" style="rhombus;whiteSpace=wrap;html=1;align=center;" vertex="1" parent="WIyWlLk6GJQsqaUBKTNV-1">
          <mxGeometry x="328.75" y="460" width="142.5" height="80" as="geometry" />
        </mxCell>
        <mxCell id="JMEBh1NOCG6JyZOsz3gw-15" style="edgeStyle=orthogonalEdgeStyle;rounded=0;orthogonalLoop=1;jettySize=auto;html=1;exitX=1;exitY=0.5;exitDx=0;exitDy=0;entryX=0.5;entryY=1;entryDx=0;entryDy=0;" edge="1" parent="WIyWlLk6GJQsqaUBKTNV-1" source="JMEBh1NOCG6JyZOsz3gw-5" target="JMEBh1NOCG6JyZOsz3gw-6">
          <mxGeometry relative="1" as="geometry" />
        </mxCell>
        <mxCell id="JMEBh1NOCG6JyZOsz3gw-17" style="edgeStyle=orthogonalEdgeStyle;rounded=0;orthogonalLoop=1;jettySize=auto;html=1;exitX=0.5;exitY=1;exitDx=0;exitDy=0;entryX=0.5;entryY=0;entryDx=0;entryDy=0;" edge="1" parent="WIyWlLk6GJQsqaUBKTNV-1" source="JMEBh1NOCG6JyZOsz3gw-5" target="JMEBh1NOCG6JyZOsz3gw-7">
          <mxGeometry relative="1" as="geometry" />
        </mxCell>
        <mxCell id="JMEBh1NOCG6JyZOsz3gw-5" value="&lt;span class=&quot;HwtZe&quot; lang=&quot;en&quot;&gt;&lt;span class=&quot;jCAhz ChMk0b C1N51c&quot;&gt;&lt;span class=&quot;ryNqvb&quot;&gt;The customer&lt;br&gt;&lt;/span&gt;&lt;/span&gt;&lt;/span&gt;&lt;div align=&quot;center&quot;&gt;&lt;span class=&quot;HwtZe&quot; lang=&quot;en&quot;&gt;&lt;span class=&quot;jCAhz ChMk0b C1N51c&quot;&gt;&lt;span class=&quot;ryNqvb&quot;&gt;checks the accuracy&lt;/span&gt;&lt;/span&gt;&lt;/span&gt;&lt;/div&gt;&lt;p&gt;&lt;/p&gt;" style="rhombus;whiteSpace=wrap;html=1;align=center;" vertex="1" parent="WIyWlLk6GJQsqaUBKTNV-1">
          <mxGeometry x="324.38" y="590" width="151.25" height="80" as="geometry" />
        </mxCell>
        <mxCell id="JMEBh1NOCG6JyZOsz3gw-16" style="edgeStyle=orthogonalEdgeStyle;rounded=0;orthogonalLoop=1;jettySize=auto;html=1;exitX=0.5;exitY=0;exitDx=0;exitDy=0;" edge="1" parent="WIyWlLk6GJQsqaUBKTNV-1" source="JMEBh1NOCG6JyZOsz3gw-6">
          <mxGeometry relative="1" as="geometry">
            <mxPoint x="400" y="440" as="targetPoint" />
            <Array as="points">
              <mxPoint x="610" y="440" />
              <mxPoint x="400" y="440" />
            </Array>
          </mxGeometry>
        </mxCell>
        <mxCell id="JMEBh1NOCG6JyZOsz3gw-6" value="Fix Bug" style="rounded=0;whiteSpace=wrap;html=1;" vertex="1" parent="WIyWlLk6GJQsqaUBKTNV-1">
          <mxGeometry x="550" y="470" width="120" height="60" as="geometry" />
        </mxCell>
        <mxCell id="JMEBh1NOCG6JyZOsz3gw-7" value="End" style="rounded=1;whiteSpace=wrap;html=1;" vertex="1" parent="WIyWlLk6GJQsqaUBKTNV-1">
          <mxGeometry x="340" y="720" width="120" height="60" as="geometry" />
        </mxCell>
        <mxCell id="JMEBh1NOCG6JyZOsz3gw-19" value="Pubilsh" style="text;html=1;align=center;verticalAlign=middle;resizable=0;points=[];autosize=1;strokeColor=none;fillColor=none;" vertex="1" parent="WIyWlLk6GJQsqaUBKTNV-1">
          <mxGeometry x="390" y="540" width="70" height="30" as="geometry" />
        </mxCell>
        <mxCell id="JMEBh1NOCG6JyZOsz3gw-20" value="Pubilsh" style="text;html=1;align=center;verticalAlign=middle;resizable=0;points=[];autosize=1;strokeColor=none;fillColor=none;" vertex="1" parent="WIyWlLk6GJQsqaUBKTNV-1">
          <mxGeometry x="390" y="678" width="70" height="30" as="geometry" />
        </mxCell>
        <mxCell id="JMEBh1NOCG6JyZOsz3gw-21" value="Reject" style="text;html=1;align=center;verticalAlign=middle;resizable=0;points=[];autosize=1;strokeColor=none;fillColor=none;" vertex="1" parent="WIyWlLk6GJQsqaUBKTNV-1">
          <mxGeometry x="471.25" y="470" width="60" height="30" as="geometry" />
        </mxCell>
        <mxCell id="JMEBh1NOCG6JyZOsz3gw-22" value="Reject" style="text;html=1;align=center;verticalAlign=middle;resizable=0;points=[];autosize=1;strokeColor=none;fillColor=none;" vertex="1" parent="WIyWlLk6GJQsqaUBKTNV-1">
          <mxGeometry x="500" y="600" width="60" height="30" as="geometry" />
        </mxCell>
      </root>
    </mxGraphModel>
  </diagram>
</mxfile>
